<?xml version="1.0" standalone="no"?><svg xmlns="http://www.w3.org/2000/svg" viewBox="0 0 1440 320"><path fill="#3f5efb" fill-opacity="1" d="M0,0L15,32C30,64,60,128,90,133.3C120,139,150,85,180,101.3C210,117,240,203,270,224C300,245,330,203,360,176C390,149,420,139,450,138.7C480,139,510,149,540,128C570,107,600,53,630,53.3C660,53,690,107,720,144C750,181,780,203,810,192C840,181,870,139,900,117.3C930,96,960,96,990,90.7C1020,85,1050,75,1080,69.3C1110,64,1140,64,1170,80C1200,96,1230,128,1260,133.3C1290,139,1320,117,1350,128C1380,139,1410,181,1425,202.7L1440,224L1440,0L1425,0C1410,0,1380,0,1350,0C1320,0,1290,0,1260,0C1230,0,1200,0,1170,0C1140,0,1110,0,1080,0C1050,0,1020,0,990,0C960,0,930,0,900,0C870,0,840,0,810,0C780,0,750,0,720,0C690,0,660,0,630,0C600,0,570,0,540,0C510,0,480,0,450,0C420,0,390,0,360,0C330,0,300,0,270,0C240,0,210,0,180,0C150,0,120,0,90,0C60,0,30,0,15,0L0,0Z"></path></svg>